#tb 0: 1/25
#media_type 0: video
#codec_id 0: rawvideo
#dimensions 0: 416x240
#sar 0: 0/1
0,          0,          0,        1,   149760, 0xa8d7adfa
0,          1,          1,        1,   149760, 0x76d1ddfe
0,          2,          2,        1,   149760, 0x56599cae
